<?xml version="1.0" standalone="no"?><!DOCTYPE svg PUBLIC "-//W3C//DTD SVG 1.1//EN" "http://www.w3.org/Graphics/SVG/1.1/DTD/svg11.dtd"><svg t="1521260533895" class="icon" style="" viewBox="0 0 1024 1024" version="1.1" xmlns="http://www.w3.org/2000/svg" p-id="2528" xmlns:xlink="http://www.w3.org/1999/xlink" width="32" height="32"><defs><style type="text/css"></style></defs><path d="M72.819477 204.884944l505.92522 0c11.423651 0 20.657597-9.254604 20.657597-20.657597 0-11.402994-9.233946-20.657597-20.657597-20.657597L72.819477 163.569749c-11.423651 0-20.657597 9.254604-20.657597 20.657597C52.16188 195.63034 61.416483 204.884944 72.819477 204.884944z" p-id="2529" fill="#d33a31"></path><path d="M72.819477 487.97666l505.92522 0c11.423651 0 20.657597-9.254604 20.657597-20.657597 0-11.402994-9.233946-20.657597-20.657597-20.657597L72.819477 446.661465c-11.423651 0-20.657597 9.254604-20.657597 20.657597C52.16188 478.742714 61.416483 487.97666 72.819477 487.97666z" p-id="2530" fill="#d33a31"></path><path d="M298.524387 729.753181 72.819477 729.753181c-11.423651 0-20.657597 9.254604-20.657597 20.657597 0 11.402994 9.233946 20.657597 20.657597 20.657597l225.70491 0c11.423651 0 20.657597-9.254604 20.657597-20.657597C319.181985 739.007785 309.948039 729.753181 298.524387 729.753181z" p-id="2531" fill="#d33a31"></path><path d="M962.129049 3.122189C956.055716-0.616836 948.515693-1.029988 942.132495 2.068652L718.142165 111.202739c-7.126871 3.470476-11.60957 10.679978-11.60957 18.57118l0 722.540788c-14.79084 42.492678-70.049913 87.009801-138.839713 111.551026-47.512474 16.959888-95.417443 22.723357-135.018057 16.257529-34.704764-5.680839-58.750207-20.595625-66.001024-40.922701-7.250817-20.327076 1.941814-47.099322 25.202269-73.458417 26.545013-30.056804 67.32311-55.940774 114.835584-72.880004 34.539503-12.332586 69.678076-18.798414 101.883271-18.798414 1.280771 0 2.561542 0.020658 3.800998 0.020658 11.279048 0 20.492337-9.048028 20.657597-20.347734 0.165261-11.402994-8.94474-20.781543-20.347734-20.967461-38.195898-0.619728-79.469778 6.775692-119.855381 21.174037-53.978302 19.252881-100.829733 49.247712-131.919418 84.448259-34.023063 38.526419-45.777236 79.242544-33.134786 114.670324 12.621792 35.42778 47.533132 59.514538 98.226876 67.818893 12.683765 2.06576 26.028573 3.09864 39.827848 3.09864 36.646578 0 76.536399-7.230159 115.765176-21.215353 83.250118-29.705625 148.156289-85.088644 165.364068-141.132706 0.59907-1.962472 0.908934-4.007574 0.908934-6.052676L747.889106 142.684918l182.695792-88.99293L930.584898 178.484534l-124.42071 71.268711c-9.894989 5.660182-13.344808 18.281974-7.663969 28.197621 5.680839 9.894989 18.281974 13.32415 28.197621 7.663969l134.811481-77.218099c6.44517-3.677052 10.390772-10.514717 10.390772-17.930795L971.900093 20.639832C971.83812 13.533618 968.161068 6.90253 962.129049 3.122189z" p-id="2532" fill="#d33a31"></path></svg>